<?xml version="1.0" standalone="no"?><!DOCTYPE svg PUBLIC "-//W3C//DTD SVG 1.1//EN" "http://www.w3.org/Graphics/SVG/1.1/DTD/svg11.dtd"><svg t="1710658091721" class="icon" viewBox="0 0 1232 1024" version="1.1" xmlns="http://www.w3.org/2000/svg" p-id="1176" xmlns:xlink="http://www.w3.org/1999/xlink" width="240.625" height="200"><path d="M1222.84 628.51c0-0.5 0.41-0.9 0.9-0.9h8.16c0.5 0 0.9 0.41 0.9 0.9 0 0.5-0.41 0.9-0.9 0.9h-8.16a0.91 0.91 0 0 1-0.9-0.9z" fill="#ffffff" p-id="1177"></path><path d="M1207.01 612.67c-0.5 0-0.9-0.41-0.9-0.9v-8.16c0-0.5 0.41-0.9 0.9-0.9 0.5 0 0.9 0.41 0.9 0.9v8.16c0 0.49-0.41 0.9-0.9 0.9zM1195.75 617.25c-0.35 0.35-0.93 0.35-1.28 0l-5.77-5.77a0.911 0.911 0 0 1 0-1.28c0.35-0.35 0.93-0.35 1.28 0l5.77 5.77c0.35 0.35 0.35 0.93 0 1.28zM1225.27 646.77c-0.35 0.35-0.93 0.35-1.28 0l-5.77-5.77a0.911 0.911 0 0 1 0-1.28c0.35-0.35 0.93-0.35 1.28 0l5.77 5.77c0.35 0.35 0.35 0.93 0 1.28zM1218.69 616.82a0.911 0.911 0 0 1 0-1.28l5.77-5.77c0.35-0.35 0.93-0.35 1.28 0s0.35 0.93 0 1.28l-5.77 5.77c-0.35 0.35-0.93 0.35-1.28 0zM1181.2 628.51c0-0.5 0.41-0.9 0.9-0.9h8.16c0.5 0 0.9 0.41 0.9 0.9 0 0.5-0.41 0.9-0.9 0.9h-8.16a0.91 0.91 0 0 1-0.9-0.9zM1207.01 644.34c0.5 0 0.9 0.41 0.9 0.9v8.16c0 0.5-0.41 0.9-0.9 0.9-0.5 0-0.9-0.41-0.9-0.9v-8.16c-0.01-0.49 0.4-0.9 0.9-0.9zM1194.82 639.42c0.35 0.35 0.35 0.93 0 1.28l-5.77 5.77c-0.35 0.35-0.93 0.35-1.28 0a0.911 0.911 0 0 1 0-1.28l5.77-5.77c0.35-0.36 0.93-0.36 1.28 0z" fill="#ffffff" p-id="1178"></path><path d="M699.21 730.16H221.2c-63.16 0-114.54-51.38-114.54-114.54v-16.78c0-63.16 51.38-114.54 114.54-114.54h50.84c6.62-98.03 88.49-175.76 188.17-175.76 99.68 0 181.54 77.73 188.17 175.76h50.84c63.16 0 114.54 51.38 114.54 114.54v16.78c-0.01 63.16-51.39 114.54-114.55 114.54zM221.2 516.08c-45.63 0-82.76 37.13-82.76 82.76v16.78c0 45.63 37.13 82.76 82.76 82.76h478.01c45.63 0 82.76-37.13 82.76-82.76v-16.78c0-45.63-37.13-82.76-82.76-82.76H616.6l0.28-16.16c0.01-0.77 0.06-1.53 0.12-2.29 0.01-0.19 0.03-0.38 0.04-0.57 0-86.38-70.35-156.73-156.82-156.73S303.4 410.68 303.4 497.15c0.01 0.11 0.02 0.3 0.04 0.49 0.05 0.76 0.1 1.52 0.12 2.29l0.28 16.16H221.2z" fill="#ffffff" p-id="1179"></path><path d="M804.7 651.04h-28.25l3.87-19.05a82.2 82.2 0 0 0 1.65-16.37v-16.78c0-45.63-37.13-82.76-82.76-82.76h-82.62l0.28-16.16c0.01-0.77 0.06-1.54 0.12-2.3 0.01-0.19 0.03-0.38 0.04-0.57 0-86.38-70.35-156.73-156.82-156.73-12.66 0-25.78 1.72-38.98 5.1l-37.25 9.55 19.65-33.06c16.43-27.64 39.75-50.8 67.45-66.96 28.62-16.7 61.34-25.53 94.63-25.53 99.68 0 181.54 77.73 188.17 175.76h50.84c63.16 0 114.54 51.38 114.54 114.54v16.78c-0.02 63.16-51.4 114.54-114.56 114.54zM648.37 484.3h50.84c63.16 0 114.54 51.38 114.54 114.54v16.78c0 1.05-0.01 2.1-0.04 3.16 41.42-4.5 73.75-39.68 73.75-82.27v-16.78c0-45.63-37.13-82.76-82.76-82.76h-82.62l0.28-16.16c0.01-0.77 0.06-1.53 0.12-2.29 0.01-0.19 0.03-0.38 0.04-0.57 0-86.38-70.35-156.73-156.82-156.73-27.67 0-54.85 7.33-78.61 21.2a157.945 157.945 0 0 0-33.55 26.27c2.23-0.09 4.46-0.13 6.67-0.13 99.67-0.02 181.54 77.71 188.16 175.74z" fill="#ffffff" p-id="1180"></path></svg>